# xmcd
#
# Track frame offsets:
#	150
#	17137
#	32919
#	50409
#	65749
#	76292
#	96251
#	117295
#	127796
#	145452
#	158814
#	176978
#	188973
#	204348
#	220117
#	237330
#	254671
#	273096
#	284797
#	300270
#
# Disc length: 4188 seconds
#
# Revision: 1
# Processed by: cddbd v1.5.2PL0 Copyright (c) Steve Scherf et al.
# Submitted via: audiograbber 1.83.01
#
DISCID=2a105a14
DTITLE=Kamahl - Heart And Soul [Disc 3]
DYEAR=2012
DGENRE=Easy Listening
TTITLE0=The Gettysburg Address
TTITLE1=I Hear A Song
TTITLE2=What A Wonderful World
TTITLE3=Guantanamera
TTITLE4=He's Got The Whole World In His Hands
TTITLE5=Bridge Over Troubled Water
TTITLE6=From A Distance
TTITLE7=If
TTITLE8=Desiderata
TTITLE9=Imagine
TTITLE10=The White Magnolia Tree
TTITLE11=The World The Way I Want It
TTITLE12=Smile
TTITLE13=Rainbow Connection
TTITLE14=No Charge
TTITLE15=Let It Be
TTITLE16=World In Union
TTITLE17=You'll Never Walk Alone
TTITLE18=I Still Call Australia Home
TTITLE19=The Battle Hymn Of The Republic
EXTD=
EXTT0=
EXTT1=
EXTT2=
EXTT3=
EXTT4=
EXTT5=
EXTT6=
EXTT7=
EXTT8=
EXTT9=
EXTT10=
EXTT11=
EXTT12=
EXTT13=
EXTT14=
EXTT15=
EXTT16=
EXTT17=
EXTT18=
EXTT19=
PLAYORDER=
